# xmcd
#
# Track frame offsets: 
#        150
#        27376
#        55706
#        81910
#        111455
#        138682
#        168179
#        191947
#        216899
#        245217
#
# Disc length: 3711 seconds
#
# Revision: 0
# Processed by: cddbd v1.5.2PL0 Copyright (c) Steve Scherf et al.
# Submitted via: ExactAudioCopy v0.99pb4
#
DISCID=990e7d0a
DTITLE=dj StORm - REAL LOVE (le musique despion) cd2
DYEAR=2007
DGENRE=House
TTITLE0=Luetzenkirchen - Music For The Girls (Huggotron Remix)
TTITLE1=Dave Robertson - Pressure Cooker (Filthy Rich Remix)
TTITLE2=Reza - There Is Power (Thomas Gold Mix)
TTITLE3=Subsource - This Town (Hook n Sling Remix)
TTITLE4=Big World - Fuerza (Thomas Gold 'much Better mix)
TTITLE5=Dirty High feat Shena - Fallin (Nik Denton Electric Fed Mix)
TTITLE6=Michael Gray Feat Steve Edwards - Somewhere Beyond (Tv Rock Vo
TTITLE6=x)
TTITLE7=De Souza Feat Shena - Guilty (Eddie Thoneick Remix)
TTITLE8=Cubic - Superflyin (Paco Buggin and Joy Marquez Remix)
TTITLE9=Jay Lumen - Way To Eternity (Original Mix)
EXTD=
EXTT0=
EXTT1=
EXTT2=
EXTT3=
EXTT4=
EXTT5=
EXTT6=
EXTT7=
EXTT8=
EXTT9=
PLAYORDER=
